<svg xmlns="http://www.w3.org/2000/svg" width="20" height="20" viewBox="0 0 20 20"  xmlns:xlink="http://www.w3.org/1999/xlink"><rect id="svgEditorBackground" x="0" y="0" width="20" height="20" style="fill:none;stroke:none;"/><path d="M18,0h-16a2,2,0,0,0,-2,2v16a2,2,0,0,0,2,2h16a2,2,0,0,0,2,-2v-16a2,2,0,0,0,-2,-2ZM10,6a4,4,0,1,1,-4,4a4,4,0,0,1,4,-4ZM2.5,18a0.4700000000000001,0.4700000000000001,0,0,1,-0.5,-0.5v-8.5h2.0999999999999996a3.4,3.4,0,0,0,-0.10000000000000009,1a6,6,0,1,0,12,0a3.4,3.4,0,0,0,-0.09999999999999964,-1h2.0999999999999996v8.5a0.4700000000000001,0.4700000000000001,0,0,1,-0.5,0.5ZM18,4.5a0.4700000000000001,0.4700000000000001,0,0,1,-0.5,0.5h-2a0.4700000000000001,0.4700000000000001,0,0,1,-0.5,-0.5v-2a0.4700000000000001,0.4700000000000001,0,0,1,0.5,-0.5h2a0.4700000000000001,0.4700000000000001,0,0,1,0.5,0.5Z" style="fill:black;"/></svg>