<svg xmlns="http://www.w3.org/2000/svg" width="27" height="15" viewBox="-0.00311944 0 26.1462 14.91"  xmlns:xlink="http://www.w3.org/1999/xlink" preserveAspectRatio="xMidYMid meet"><rect id="svgEditorBackground" x="0" y="0" width="26.139999389648438" height="14.90999984741211" style="fill:none;stroke:none;"/><path d="M26,13.47l-0.08999999999999986,-0.16999999999999993a13.55,13.55,0,0,0,-2.6000000000000014,-3q-0.870000000000001,-0.8300000000000001,-1.1000000000000014,-1.120000000000001a1,1,0,0,1,-0.2099999999999973,-1.1799999999999997a10.27,10.27,0,0,1,1.2199999999999989,-1.7800000000000002l0.879999999999999,-1.1600000000000001q2.3500000000000014,-3.13,2,-4l-0.09999999999999787,-0.11999999999999933a0.8,0.8,0,0,0,-0.3999999999999986,-0.22000000000000008a2.14,2.14,0,0,0,-0.870000000000001,0h-3.919999999999998a0.51,0.51,0,0,0,-0.2699999999999996,0h-0.3000000000000007a0.6000000000000004,0.6000000000000004,0,0,0,-0.14999999999999858,0.14a0.93,0.93,0,0,0,-0.14000000000000057,0.23999999999999988a22.22,22.22,0,0,1,-1.4600000000000009,3.06q-0.5,0.8399999999999999,-0.9299999999999997,1.46a7,7,0,0,1,-0.7100000000000009,0.9100000000000001a4.94,4.94,0,0,1,-0.5199999999999996,0.46999999999999975q-0.23000000000000043,0.17999999999999972,-0.34999999999999964,0.15000000000000036l-0.23000000000000043,-0.04999999999999982a0.9,0.9,0,0,1,-0.3100000000000005,-0.33000000000000007a1.49,1.49,0,0,1,-0.16000000000000014,-0.5300000000000002v-4.6400000000000015a3.14,3.14,0,0,0,0,-0.6200000000000002a2.12,2.12,0,0,0,-0.14000000000000057,-0.43999999999999995a0.7300000000000004,0.7300000000000004,0,0,0,-0.27999999999999936,-0.3300000000000002a1.57,1.57,0,0,0,-0.46000000000000085,-0.18000000000000013a9,9,0,0,0,-1.83,-0.02999999999999986a8.93,8.93,0,0,0,-3.25,0.33000000000000035a1.83,1.83,0,0,0,-0.5199999999999996,0.4100000000000001q-0.25,0.2999999999999998,-0.07000000000000028,0.33000000000000007a1.6700000000000008,1.6700000000000008,0,0,1,1.1600000000000001,0.5900000000000005l0.08000000000000007,0.15999999999999948a2.6,2.6,0,0,1,0.1899999999999995,0.6300000000000003a6.32,6.32,0,0,1,0.11999999999999922,1a10.59,10.59,0,0,1,0,1.7000000000000002q-0.07000000000000028,0.7099999999999991,-0.13000000000000078,1.0999999999999988a2.21,2.21,0,0,1,-0.17999999999999972,0.6400000000000023a2.6900000000000004,2.6900000000000004,0,0,1,-0.16000000000000014,0.29999999999999893l-0.07000000000000028,0.0699999999999994a1,1,0,0,1,-0.3699999999999992,0.07000000000000028a0.8600000000000004,0.8600000000000004,0,0,1,-0.46000000000000085,-0.1900000000000004a3.27,3.27,0,0,1,-0.5600000000000005,-0.5199999999999996a7,7,0,0,1,-0.6600000000000001,-0.9299999999999997q-0.3699999999999992,-0.5999999999999996,-0.7599999999999998,-1.42l-0.21999999999999975,-0.3900000000000001q-0.20000000000000018,-0.3799999999999999,-0.5599999999999987,-1.1099999999999999t-0.620000000000001,-1.4300000000000002a0.9,0.9,0,0,0,-0.3299999999999983,-0.44000000000000117h-0.07000000000000028a0.93,0.93,0,0,0,-0.21999999999999975,-0.15999999999999992a1.44,1.44,0,0,0,-0.3100000000000005,-0.08999999999999975l-3.7299999999999995,0.030000000000000138a1,1,0,0,0,-0.7700000000000004,0.2599999999999998l-0.10000000000000003,0.05999999999999972a0.4400000000000002,0.4400000000000002,0,0,0,0,0.21999999999999997a1.08,1.08,0,0,0,0.08000000000000004,0.37000000000000033q0.8200000000000001,1.94,1.78,3.72t1.6600000000000006,2.869999999999999q0.71,1.0899999999999999,1.4799999999999995,2.0600000000000005t1,1.2400000000000002l0.3700000000000001,0.41000000000000014l0.33999999999999986,0.33000000000000007a8.06,8.06,0,0,0,1,0.7799999999999994a16.34,16.34,0,0,0,1.3999999999999995,0.9000000000000004a7.6,7.6,0,0,0,1.7899999999999991,0.7200000000000024a6.19,6.19,0,0,0,2,0.21999999999999886h1.5700000000000003a1.08,1.08,0,0,0,0.7200000000000006,-0.3000000000000007l0.05000000000000071,-0.07000000000000028a0.9,0.9,0,0,0,0.09999999999999964,-0.25a1.3800000000000001,1.3800000000000001,0,0,0,0,-0.3699999999999992a4.48,4.48,0,0,1,0.08999999999999986,-1.0500000000000007a2.77,2.77,0,0,1,0.23000000000000043,-0.7100000000000009a1.7400000000000002,1.7400000000000002,0,0,1,0.28999999999999915,-0.40000000000000036a1.19,1.19,0,0,1,0.23000000000000043,-0.1999999999999993h0.10999999999999943a0.8600000000000004,0.8600000000000004,0,0,1,0.7699999999999996,0.21000000000000085a4.52,4.52,0,0,1,0.8300000000000018,0.7900000000000009q0.39000000000000057,0.47000000000000064,0.9299999999999997,1.0500000000000007a6.41,6.41,0,0,0,1,0.870000000000001l0.2699999999999996,0.16000000000000014a3.31,3.31,0,0,0,0.7100000000000009,0.3000000000000007a1.53,1.53,0,0,0,0.7600000000000016,0.07000000000000028l3.4800000000000004,-0.05000000000000071a1.58,1.58,0,0,0,0.8000000000000007,-0.16999999999999993a0.6800000000000007,0.6800000000000007,0,0,0,0.33999999999999986,-0.3699999999999992a1.06,1.06,0,0,0,0,-0.46000000000000085a1.71,1.71,0,0,0,-0.10000000000000142,-0.35999999999999943Z" style="fill:black;"/></svg>